<mxfile host="app.diagrams.net" agent="Mozilla/5.0 (Macintosh; Intel Mac OS X 10_15_7) AppleWebKit/537.36 (KHTML, like Gecko) Chrome/134.0.0.0 Safari/537.36" version="26.1.0">
  <diagram name="Pagina-1" id="fKY_Gx4-Wao7bdq79K0J">
    <mxGraphModel dx="1593" dy="1876" grid="1" gridSize="10" guides="1" tooltips="1" connect="1" arrows="1" fold="1" page="1" pageScale="1" pageWidth="827" pageHeight="1169" math="0" shadow="0">
      <root>
        <mxCell id="0" />
        <mxCell id="1" parent="0" />
        <mxCell id="38NqQ832aSYF8gRKxVFK-132" value="&lt;b&gt;Postgres&lt;/b&gt;" style="rounded=1;whiteSpace=wrap;html=1;fontFamily=Helvetica;fontSize=11;labelBackgroundColor=default;fillColor=#dae8fc;strokeColor=#6c8ebf;rotation=90;" vertex="1" parent="1">
          <mxGeometry x="937" y="95.75" width="325" height="137.5" as="geometry" />
        </mxCell>
        <mxCell id="38NqQ832aSYF8gRKxVFK-56" value="&lt;b&gt;Apache Kafka&lt;/b&gt;" style="rounded=1;whiteSpace=wrap;html=1;fillColor=#fff2cc;strokeColor=#d6b656;" vertex="1" parent="1">
          <mxGeometry x="-80" y="465" width="1240" height="190" as="geometry" />
        </mxCell>
        <mxCell id="3" value="Frontend" style="rounded=1;whiteSpace=wrap;arcSize=50;strokeWidth=2;" parent="1" vertex="1">
          <mxGeometry x="327" y="8" width="89" height="39" as="geometry" />
        </mxCell>
        <mxCell id="38NqQ832aSYF8gRKxVFK-133" style="edgeStyle=orthogonalEdgeStyle;shape=connector;curved=0;rounded=1;orthogonalLoop=1;jettySize=auto;html=1;strokeColor=default;align=center;verticalAlign=middle;fontFamily=Helvetica;fontSize=11;fontColor=default;labelBackgroundColor=default;endArrow=classic;entryX=0.5;entryY=1;entryDx=0;entryDy=0;" edge="1" parent="1" source="4" target="RZmeAOAHohW3IqfWP5Iw-19">
          <mxGeometry relative="1" as="geometry">
            <mxPoint y="-30" as="targetPoint" />
          </mxGeometry>
        </mxCell>
        <mxCell id="38NqQ832aSYF8gRKxVFK-134" value="OAuth2" style="edgeLabel;html=1;align=center;verticalAlign=middle;resizable=0;points=[];fontFamily=Helvetica;fontSize=11;fontColor=default;labelBackgroundColor=default;" vertex="1" connectable="0" parent="38NqQ832aSYF8gRKxVFK-133">
          <mxGeometry x="0.0122" y="-4" relative="1" as="geometry">
            <mxPoint x="1" as="offset" />
          </mxGeometry>
        </mxCell>
        <mxCell id="4" value="auth-service" style="rounded=1;whiteSpace=wrap;arcSize=50;strokeWidth=2;" parent="1" vertex="1">
          <mxGeometry x="-80" y="145" width="127" height="39" as="geometry" />
        </mxCell>
        <mxCell id="RZmeAOAHohW3IqfWP5Iw-23" value="" style="edgeStyle=orthogonalEdgeStyle;rounded=0;orthogonalLoop=1;jettySize=auto;html=1;" parent="1" source="5" target="4" edge="1">
          <mxGeometry relative="1" as="geometry" />
        </mxCell>
        <mxCell id="RZmeAOAHohW3IqfWP5Iw-24" value="REST API Calls" style="edgeLabel;html=1;align=center;verticalAlign=middle;resizable=0;points=[];" parent="RZmeAOAHohW3IqfWP5Iw-23" vertex="1" connectable="0">
          <mxGeometry x="-0.08" y="1" relative="1" as="geometry">
            <mxPoint as="offset" />
          </mxGeometry>
        </mxCell>
        <mxCell id="38NqQ832aSYF8gRKxVFK-37" style="rounded=1;orthogonalLoop=1;jettySize=auto;html=1;entryX=0.5;entryY=1;entryDx=0;entryDy=0;entryPerimeter=0;edgeStyle=orthogonalEdgeStyle;exitX=0;exitY=0.75;exitDx=0;exitDy=0;curved=0;" edge="1" parent="1" source="5" target="38NqQ832aSYF8gRKxVFK-84">
          <mxGeometry relative="1" as="geometry">
            <mxPoint x="135" y="290" as="sourcePoint" />
            <mxPoint x="-80" y="520" as="targetPoint" />
            <Array as="points">
              <mxPoint x="170" y="280" />
              <mxPoint y="280" />
              <mxPoint y="510" />
            </Array>
          </mxGeometry>
        </mxCell>
        <mxCell id="38NqQ832aSYF8gRKxVFK-38" value="produces" style="edgeLabel;html=1;align=center;verticalAlign=middle;resizable=0;points=[];" vertex="1" connectable="0" parent="38NqQ832aSYF8gRKxVFK-37">
          <mxGeometry x="-0.0759" relative="1" as="geometry">
            <mxPoint as="offset" />
          </mxGeometry>
        </mxCell>
        <mxCell id="38NqQ832aSYF8gRKxVFK-112" style="edgeStyle=orthogonalEdgeStyle;shape=connector;curved=0;rounded=1;orthogonalLoop=1;jettySize=auto;html=1;entryX=0.75;entryY=1;entryDx=0;entryDy=0;strokeColor=default;align=center;verticalAlign=middle;fontFamily=Helvetica;fontSize=11;fontColor=default;labelBackgroundColor=default;endArrow=classic;exitX=0.25;exitY=0;exitDx=0;exitDy=0;" edge="1" parent="1" source="5" target="RZmeAOAHohW3IqfWP5Iw-19">
          <mxGeometry relative="1" as="geometry">
            <Array as="points">
              <mxPoint x="202" />
              <mxPoint x="14" />
            </Array>
          </mxGeometry>
        </mxCell>
        <mxCell id="38NqQ832aSYF8gRKxVFK-113" value="REST API calls" style="edgeLabel;html=1;align=center;verticalAlign=middle;resizable=0;points=[];fontFamily=Helvetica;fontSize=11;fontColor=default;labelBackgroundColor=default;" vertex="1" connectable="0" parent="38NqQ832aSYF8gRKxVFK-112">
          <mxGeometry x="0.4213" y="-2" relative="1" as="geometry">
            <mxPoint x="76" y="2" as="offset" />
          </mxGeometry>
        </mxCell>
        <mxCell id="5" value="activity-service" style="rounded=1;whiteSpace=wrap;arcSize=50;strokeWidth=2;" parent="1" vertex="1">
          <mxGeometry x="170" y="145" width="127" height="39" as="geometry" />
        </mxCell>
        <mxCell id="6" value="segmentation-service" style="rounded=1;whiteSpace=wrap;arcSize=50;strokeWidth=2;" parent="1" vertex="1">
          <mxGeometry x="315.25" y="145" width="127" height="39" as="geometry" />
        </mxCell>
        <mxCell id="7" value="query-service" style="rounded=1;whiteSpace=wrap;arcSize=50;strokeWidth=2;" parent="1" vertex="1">
          <mxGeometry x="810" y="145" width="127" height="39" as="geometry" />
        </mxCell>
        <mxCell id="38NqQ832aSYF8gRKxVFK-127" style="edgeStyle=orthogonalEdgeStyle;shape=connector;curved=0;rounded=1;orthogonalLoop=1;jettySize=auto;html=1;entryX=0.5;entryY=1;entryDx=0;entryDy=0;strokeColor=default;align=center;verticalAlign=middle;fontFamily=Helvetica;fontSize=11;fontColor=default;labelBackgroundColor=default;endArrow=classic;" edge="1" parent="1" source="11" target="38NqQ832aSYF8gRKxVFK-126">
          <mxGeometry relative="1" as="geometry">
            <Array as="points">
              <mxPoint x="512" y="60" />
              <mxPoint x="476" y="60" />
            </Array>
          </mxGeometry>
        </mxCell>
        <mxCell id="38NqQ832aSYF8gRKxVFK-128" value="REST API calls" style="edgeLabel;html=1;align=center;verticalAlign=middle;resizable=0;points=[];fontFamily=Helvetica;fontSize=11;fontColor=default;labelBackgroundColor=default;" vertex="1" connectable="0" parent="38NqQ832aSYF8gRKxVFK-127">
          <mxGeometry x="-0.1568" y="1" relative="1" as="geometry">
            <mxPoint x="1" y="32" as="offset" />
          </mxGeometry>
        </mxCell>
        <mxCell id="11" value="weather-service" style="rounded=1;whiteSpace=wrap;arcSize=50;strokeWidth=2;" parent="1" vertex="1">
          <mxGeometry x="460" y="145" width="103" height="39" as="geometry" />
        </mxCell>
        <mxCell id="12" value="REST API calls" style="startArrow=none;endArrow=block;exitX=0.01;exitY=0.74;entryX=0.75;entryY=0;edgeStyle=orthogonalEdgeStyle;entryDx=0;entryDy=0;" parent="1" source="3" target="4" edge="1">
          <mxGeometry relative="1" as="geometry" />
        </mxCell>
        <mxCell id="13" value="REST API calls" style="startArrow=none;endArrow=block;exitX=0.5;exitY=1;entryX=0.5;entryY=0;edgeStyle=orthogonalEdgeStyle;exitDx=0;exitDy=0;" parent="1" source="3" target="5" edge="1">
          <mxGeometry x="-0.1483" relative="1" as="geometry">
            <mxPoint x="1" as="offset" />
          </mxGeometry>
        </mxCell>
        <mxCell id="15" value="REST API calls" style="startArrow=none;endArrow=block;exitX=1.01;exitY=0.74;entryX=0.5;entryY=0;rounded=1;edgeStyle=orthogonalEdgeStyle;" parent="1" source="3" target="7" edge="1">
          <mxGeometry x="0.2513" relative="1" as="geometry">
            <mxPoint as="offset" />
          </mxGeometry>
        </mxCell>
        <mxCell id="17" value="" style="startArrow=none;endArrow=block;exitX=0.5;exitY=1;entryX=0.5;entryY=0;entryDx=0;entryDy=0;entryPerimeter=0;edgeStyle=orthogonalEdgeStyle;" parent="1" source="5" target="38NqQ832aSYF8gRKxVFK-19" edge="1">
          <mxGeometry x="-0.0012" y="-8" relative="1" as="geometry">
            <mxPoint x="1" as="offset" />
          </mxGeometry>
        </mxCell>
        <mxCell id="38NqQ832aSYF8gRKxVFK-123" value="data persistence" style="edgeLabel;html=1;align=center;verticalAlign=middle;resizable=0;points=[];fontFamily=Helvetica;fontSize=11;fontColor=default;labelBackgroundColor=default;" vertex="1" connectable="0" parent="17">
          <mxGeometry x="0.6297" y="-1" relative="1" as="geometry">
            <mxPoint x="10" as="offset" />
          </mxGeometry>
        </mxCell>
        <mxCell id="RZmeAOAHohW3IqfWP5Iw-19" value="&lt;b&gt;STRAVA API&lt;/b&gt;" style="rounded=1;whiteSpace=wrap;html=1;fillColor=#ffe6cc;strokeColor=#d79b00;" parent="1" vertex="1">
          <mxGeometry x="-76.5" y="-120" width="120" height="60" as="geometry" />
        </mxCell>
        <mxCell id="38NqQ832aSYF8gRKxVFK-19" value="activities" style="shape=cylinder3;whiteSpace=wrap;html=1;boundedLbl=1;backgroundOutline=1;size=15;" vertex="1" parent="1">
          <mxGeometry x="1070" y="220" width="55" height="80" as="geometry" />
        </mxCell>
        <mxCell id="38NqQ832aSYF8gRKxVFK-20" value="analytics" style="shape=cylinder3;whiteSpace=wrap;html=1;boundedLbl=1;backgroundOutline=1;size=15;" vertex="1" parent="1">
          <mxGeometry x="1070" y="46.879999999999995" width="55" height="80" as="geometry" />
        </mxCell>
        <mxCell id="38NqQ832aSYF8gRKxVFK-130" style="edgeStyle=orthogonalEdgeStyle;shape=connector;curved=0;rounded=1;orthogonalLoop=1;jettySize=auto;html=1;strokeColor=default;align=center;verticalAlign=middle;fontFamily=Helvetica;fontSize=11;fontColor=default;labelBackgroundColor=default;endArrow=classic;" edge="1" parent="1" source="38NqQ832aSYF8gRKxVFK-24" target="38NqQ832aSYF8gRKxVFK-129">
          <mxGeometry relative="1" as="geometry">
            <Array as="points">
              <mxPoint x="622" y="60" />
              <mxPoint x="660" y="60" />
            </Array>
          </mxGeometry>
        </mxCell>
        <mxCell id="38NqQ832aSYF8gRKxVFK-131" value="REST API calls" style="edgeLabel;html=1;align=center;verticalAlign=middle;resizable=0;points=[];fontFamily=Helvetica;fontSize=11;fontColor=default;labelBackgroundColor=default;" vertex="1" connectable="0" parent="38NqQ832aSYF8gRKxVFK-130">
          <mxGeometry x="-0.123" y="-2" relative="1" as="geometry">
            <mxPoint x="2" y="31" as="offset" />
          </mxGeometry>
        </mxCell>
        <mxCell id="38NqQ832aSYF8gRKxVFK-24" value="terrain-service" style="rounded=1;whiteSpace=wrap;arcSize=50;strokeWidth=2;" vertex="1" parent="1">
          <mxGeometry x="570" y="145" width="103" height="39" as="geometry" />
        </mxCell>
        <mxCell id="38NqQ832aSYF8gRKxVFK-25" value="efficiency-service" style="rounded=1;whiteSpace=wrap;arcSize=50;strokeWidth=2;" vertex="1" parent="1">
          <mxGeometry x="690" y="145" width="103" height="39" as="geometry" />
        </mxCell>
        <mxCell id="38NqQ832aSYF8gRKxVFK-48" style="rounded=1;orthogonalLoop=1;jettySize=auto;html=1;entryX=0.5;entryY=1;entryDx=0;entryDy=0;entryPerimeter=0;edgeStyle=orthogonalEdgeStyle;exitX=0.75;exitY=1;exitDx=0;exitDy=0;curved=0;" edge="1" parent="1" source="5" target="38NqQ832aSYF8gRKxVFK-79">
          <mxGeometry relative="1" as="geometry">
            <mxPoint x="244" y="194" as="sourcePoint" />
            <mxPoint x="297" y="510" as="targetPoint" />
          </mxGeometry>
        </mxCell>
        <mxCell id="38NqQ832aSYF8gRKxVFK-49" value="produces" style="edgeLabel;html=1;align=center;verticalAlign=middle;resizable=0;points=[];" vertex="1" connectable="0" parent="38NqQ832aSYF8gRKxVFK-48">
          <mxGeometry x="-0.0759" relative="1" as="geometry">
            <mxPoint as="offset" />
          </mxGeometry>
        </mxCell>
        <mxCell id="38NqQ832aSYF8gRKxVFK-50" style="edgeStyle=orthogonalEdgeStyle;rounded=1;orthogonalLoop=1;jettySize=auto;html=1;exitX=0.5;exitY=0;exitDx=0;exitDy=0;exitPerimeter=0;curved=0;" edge="1" parent="1" source="38NqQ832aSYF8gRKxVFK-79" target="6">
          <mxGeometry relative="1" as="geometry">
            <mxPoint x="490" y="420" as="targetPoint" />
            <mxPoint x="512" y="510" as="sourcePoint" />
          </mxGeometry>
        </mxCell>
        <mxCell id="38NqQ832aSYF8gRKxVFK-51" value="consumes" style="edgeLabel;html=1;align=center;verticalAlign=middle;resizable=0;points=[];" vertex="1" connectable="0" parent="38NqQ832aSYF8gRKxVFK-50">
          <mxGeometry x="0.2001" relative="1" as="geometry">
            <mxPoint x="27" as="offset" />
          </mxGeometry>
        </mxCell>
        <mxCell id="38NqQ832aSYF8gRKxVFK-63" style="edgeStyle=orthogonalEdgeStyle;rounded=1;orthogonalLoop=1;jettySize=auto;html=1;exitX=0.75;exitY=1;exitDx=0;exitDy=0;entryX=0.5;entryY=1;entryDx=0;entryDy=0;entryPerimeter=0;curved=0;" edge="1" parent="1" source="6" target="38NqQ832aSYF8gRKxVFK-72">
          <mxGeometry relative="1" as="geometry">
            <mxPoint x="591.29" y="519" as="targetPoint" />
            <Array as="points">
              <mxPoint x="411" y="290" />
              <mxPoint x="520" y="290" />
              <mxPoint x="520" y="500" />
            </Array>
          </mxGeometry>
        </mxCell>
        <mxCell id="38NqQ832aSYF8gRKxVFK-64" value="produces" style="edgeLabel;html=1;align=center;verticalAlign=middle;resizable=0;points=[];" vertex="1" connectable="0" parent="38NqQ832aSYF8gRKxVFK-63">
          <mxGeometry x="-0.3735" relative="1" as="geometry">
            <mxPoint as="offset" />
          </mxGeometry>
        </mxCell>
        <mxCell id="38NqQ832aSYF8gRKxVFK-65" style="edgeStyle=orthogonalEdgeStyle;rounded=1;orthogonalLoop=1;jettySize=auto;html=1;entryX=0.5;entryY=1;entryDx=0;entryDy=0;curved=0;exitX=0.5;exitY=0;exitDx=0;exitDy=0;exitPerimeter=0;" edge="1" parent="1" source="38NqQ832aSYF8gRKxVFK-72" target="11">
          <mxGeometry relative="1" as="geometry">
            <mxPoint x="805" y="510" as="sourcePoint" />
            <Array as="points">
              <mxPoint x="760" y="500" />
              <mxPoint x="760" y="270" />
              <mxPoint x="512" y="270" />
            </Array>
          </mxGeometry>
        </mxCell>
        <mxCell id="38NqQ832aSYF8gRKxVFK-70" value="consumes" style="edgeLabel;html=1;align=center;verticalAlign=middle;resizable=0;points=[];" vertex="1" connectable="0" parent="38NqQ832aSYF8gRKxVFK-65">
          <mxGeometry x="0.244" y="1" relative="1" as="geometry">
            <mxPoint x="47" y="-1" as="offset" />
          </mxGeometry>
        </mxCell>
        <mxCell id="38NqQ832aSYF8gRKxVFK-68" value="" style="endArrow=classic;html=1;rounded=0;startSize=6;targetPerimeterSpacing=0;" edge="1" parent="1">
          <mxGeometry width="50" height="50" relative="1" as="geometry">
            <mxPoint x="621" y="270" as="sourcePoint" />
            <mxPoint x="621" y="184" as="targetPoint" />
          </mxGeometry>
        </mxCell>
        <mxCell id="38NqQ832aSYF8gRKxVFK-69" value="" style="endArrow=classic;html=1;rounded=0;startSize=6;targetPerimeterSpacing=0;" edge="1" parent="1">
          <mxGeometry width="50" height="50" relative="1" as="geometry">
            <mxPoint x="741" y="270" as="sourcePoint" />
            <mxPoint x="741" y="184" as="targetPoint" />
          </mxGeometry>
        </mxCell>
        <mxCell id="38NqQ832aSYF8gRKxVFK-77" value="" style="group" vertex="1" connectable="0" parent="1">
          <mxGeometry x="550" y="470" width="177.5" height="60" as="geometry" />
        </mxCell>
        <mxCell id="38NqQ832aSYF8gRKxVFK-72" value="" style="shape=cylinder3;whiteSpace=wrap;html=1;boundedLbl=1;backgroundOutline=1;size=15;rotation=90;" vertex="1" parent="38NqQ832aSYF8gRKxVFK-77">
          <mxGeometry x="58.75" y="-58.75" width="60" height="177.5" as="geometry" />
        </mxCell>
        <mxCell id="38NqQ832aSYF8gRKxVFK-73" value="" style="shape=note;whiteSpace=wrap;html=1;backgroundOutline=1;darkOpacity=0.05;size=11;" vertex="1" parent="38NqQ832aSYF8gRKxVFK-77">
          <mxGeometry x="25" y="10" width="30" height="40" as="geometry" />
        </mxCell>
        <mxCell id="38NqQ832aSYF8gRKxVFK-75" value="" style="shape=note;whiteSpace=wrap;html=1;backgroundOutline=1;darkOpacity=0.05;size=11;" vertex="1" parent="38NqQ832aSYF8gRKxVFK-77">
          <mxGeometry x="105" y="10" width="30" height="40" as="geometry" />
        </mxCell>
        <mxCell id="38NqQ832aSYF8gRKxVFK-76" value="" style="shape=note;whiteSpace=wrap;html=1;backgroundOutline=1;darkOpacity=0.05;size=11;" vertex="1" parent="38NqQ832aSYF8gRKxVFK-77">
          <mxGeometry x="65" y="10" width="30" height="40" as="geometry" />
        </mxCell>
        <mxCell id="38NqQ832aSYF8gRKxVFK-78" value="" style="group" vertex="1" connectable="0" parent="1">
          <mxGeometry x="290" y="580" width="177.5" height="60" as="geometry" />
        </mxCell>
        <mxCell id="38NqQ832aSYF8gRKxVFK-79" value="" style="shape=cylinder3;whiteSpace=wrap;html=1;boundedLbl=1;backgroundOutline=1;size=15;rotation=90;" vertex="1" parent="38NqQ832aSYF8gRKxVFK-78">
          <mxGeometry x="58.75" y="-58.75" width="60" height="177.5" as="geometry" />
        </mxCell>
        <mxCell id="38NqQ832aSYF8gRKxVFK-80" value="" style="shape=note;whiteSpace=wrap;html=1;backgroundOutline=1;darkOpacity=0.05;size=11;" vertex="1" parent="38NqQ832aSYF8gRKxVFK-78">
          <mxGeometry x="25" y="10" width="30" height="40" as="geometry" />
        </mxCell>
        <mxCell id="38NqQ832aSYF8gRKxVFK-81" value="" style="shape=note;whiteSpace=wrap;html=1;backgroundOutline=1;darkOpacity=0.05;size=11;" vertex="1" parent="38NqQ832aSYF8gRKxVFK-78">
          <mxGeometry x="105" y="10" width="30" height="40" as="geometry" />
        </mxCell>
        <mxCell id="38NqQ832aSYF8gRKxVFK-82" value="" style="shape=note;whiteSpace=wrap;html=1;backgroundOutline=1;darkOpacity=0.05;size=11;" vertex="1" parent="38NqQ832aSYF8gRKxVFK-78">
          <mxGeometry x="65" y="10" width="30" height="40" as="geometry" />
        </mxCell>
        <mxCell id="38NqQ832aSYF8gRKxVFK-83" value="" style="group" vertex="1" connectable="0" parent="1">
          <mxGeometry x="20" y="480" width="177.5" height="60" as="geometry" />
        </mxCell>
        <mxCell id="38NqQ832aSYF8gRKxVFK-84" value="" style="shape=cylinder3;whiteSpace=wrap;html=1;boundedLbl=1;backgroundOutline=1;size=15;rotation=90;" vertex="1" parent="38NqQ832aSYF8gRKxVFK-83">
          <mxGeometry x="58.75" y="-58.75" width="60" height="177.5" as="geometry" />
        </mxCell>
        <mxCell id="38NqQ832aSYF8gRKxVFK-85" value="" style="shape=note;whiteSpace=wrap;html=1;backgroundOutline=1;darkOpacity=0.05;size=11;" vertex="1" parent="38NqQ832aSYF8gRKxVFK-83">
          <mxGeometry x="25" y="10" width="30" height="40" as="geometry" />
        </mxCell>
        <mxCell id="38NqQ832aSYF8gRKxVFK-86" value="" style="shape=note;whiteSpace=wrap;html=1;backgroundOutline=1;darkOpacity=0.05;size=11;" vertex="1" parent="38NqQ832aSYF8gRKxVFK-83">
          <mxGeometry x="105" y="10" width="30" height="40" as="geometry" />
        </mxCell>
        <mxCell id="38NqQ832aSYF8gRKxVFK-87" value="" style="shape=note;whiteSpace=wrap;html=1;backgroundOutline=1;darkOpacity=0.05;size=11;" vertex="1" parent="38NqQ832aSYF8gRKxVFK-83">
          <mxGeometry x="65" y="10" width="30" height="40" as="geometry" />
        </mxCell>
        <mxCell id="38NqQ832aSYF8gRKxVFK-92" value="" style="group" vertex="1" connectable="0" parent="1">
          <mxGeometry x="580" y="580" width="177.5" height="60" as="geometry" />
        </mxCell>
        <mxCell id="38NqQ832aSYF8gRKxVFK-93" value="" style="shape=cylinder3;whiteSpace=wrap;html=1;boundedLbl=1;backgroundOutline=1;size=15;rotation=90;" vertex="1" parent="38NqQ832aSYF8gRKxVFK-92">
          <mxGeometry x="58.75" y="-58.75" width="60" height="177.5" as="geometry" />
        </mxCell>
        <mxCell id="38NqQ832aSYF8gRKxVFK-94" value="" style="shape=note;whiteSpace=wrap;html=1;backgroundOutline=1;darkOpacity=0.05;size=11;" vertex="1" parent="38NqQ832aSYF8gRKxVFK-92">
          <mxGeometry x="25" y="10" width="30" height="40" as="geometry" />
        </mxCell>
        <mxCell id="38NqQ832aSYF8gRKxVFK-95" value="" style="shape=note;whiteSpace=wrap;html=1;backgroundOutline=1;darkOpacity=0.05;size=11;" vertex="1" parent="38NqQ832aSYF8gRKxVFK-92">
          <mxGeometry x="105" y="10" width="30" height="40" as="geometry" />
        </mxCell>
        <mxCell id="38NqQ832aSYF8gRKxVFK-96" value="" style="shape=note;whiteSpace=wrap;html=1;backgroundOutline=1;darkOpacity=0.05;size=11;" vertex="1" parent="38NqQ832aSYF8gRKxVFK-92">
          <mxGeometry x="65" y="10" width="30" height="40" as="geometry" />
        </mxCell>
        <mxCell id="38NqQ832aSYF8gRKxVFK-98" value="" style="group" vertex="1" connectable="0" parent="1">
          <mxGeometry x="870" y="490" width="177.5" height="60" as="geometry" />
        </mxCell>
        <mxCell id="38NqQ832aSYF8gRKxVFK-99" value="" style="shape=cylinder3;whiteSpace=wrap;html=1;boundedLbl=1;backgroundOutline=1;size=15;rotation=90;" vertex="1" parent="38NqQ832aSYF8gRKxVFK-98">
          <mxGeometry x="58.75" y="-58.75" width="60" height="177.5" as="geometry" />
        </mxCell>
        <mxCell id="38NqQ832aSYF8gRKxVFK-100" value="" style="shape=note;whiteSpace=wrap;html=1;backgroundOutline=1;darkOpacity=0.05;size=11;" vertex="1" parent="38NqQ832aSYF8gRKxVFK-98">
          <mxGeometry x="25" y="10" width="30" height="40" as="geometry" />
        </mxCell>
        <mxCell id="38NqQ832aSYF8gRKxVFK-101" value="" style="shape=note;whiteSpace=wrap;html=1;backgroundOutline=1;darkOpacity=0.05;size=11;" vertex="1" parent="38NqQ832aSYF8gRKxVFK-98">
          <mxGeometry x="105" y="10" width="30" height="40" as="geometry" />
        </mxCell>
        <mxCell id="38NqQ832aSYF8gRKxVFK-102" value="" style="shape=note;whiteSpace=wrap;html=1;backgroundOutline=1;darkOpacity=0.05;size=11;" vertex="1" parent="38NqQ832aSYF8gRKxVFK-98">
          <mxGeometry x="65" y="10" width="30" height="40" as="geometry" />
        </mxCell>
        <mxCell id="38NqQ832aSYF8gRKxVFK-103" style="edgeStyle=orthogonalEdgeStyle;rounded=1;orthogonalLoop=1;jettySize=auto;html=1;curved=0;exitX=0.75;exitY=1;exitDx=0;exitDy=0;" edge="1" parent="1" source="38NqQ832aSYF8gRKxVFK-24">
          <mxGeometry relative="1" as="geometry">
            <mxPoint x="870" y="520" as="targetPoint" />
            <Array as="points">
              <mxPoint x="647" y="400" />
              <mxPoint x="770" y="400" />
            </Array>
          </mxGeometry>
        </mxCell>
        <mxCell id="38NqQ832aSYF8gRKxVFK-104" value="produces" style="edgeLabel;html=1;align=center;verticalAlign=middle;resizable=0;points=[];fontFamily=Helvetica;fontSize=11;fontColor=default;labelBackgroundColor=default;" vertex="1" connectable="0" parent="38NqQ832aSYF8gRKxVFK-103">
          <mxGeometry x="-0.3835" relative="1" as="geometry">
            <mxPoint x="1" as="offset" />
          </mxGeometry>
        </mxCell>
        <mxCell id="38NqQ832aSYF8gRKxVFK-109" style="edgeStyle=orthogonalEdgeStyle;shape=connector;curved=0;rounded=1;orthogonalLoop=1;jettySize=auto;html=1;entryX=0;entryY=0.5;entryDx=0;entryDy=0;entryPerimeter=0;strokeColor=default;align=center;verticalAlign=middle;fontFamily=Helvetica;fontSize=11;fontColor=default;labelBackgroundColor=default;endArrow=classic;" edge="1" parent="1" source="7" target="38NqQ832aSYF8gRKxVFK-20">
          <mxGeometry relative="1" as="geometry" />
        </mxCell>
        <mxCell id="38NqQ832aSYF8gRKxVFK-125" value="query" style="edgeLabel;html=1;align=center;verticalAlign=middle;resizable=0;points=[];fontFamily=Helvetica;fontSize=11;fontColor=default;labelBackgroundColor=default;" vertex="1" connectable="0" parent="38NqQ832aSYF8gRKxVFK-109">
          <mxGeometry x="-0.3371" y="4" relative="1" as="geometry">
            <mxPoint x="10" y="-40" as="offset" />
          </mxGeometry>
        </mxCell>
        <mxCell id="38NqQ832aSYF8gRKxVFK-110" style="edgeStyle=orthogonalEdgeStyle;shape=connector;curved=0;rounded=1;orthogonalLoop=1;jettySize=auto;html=1;entryX=0.25;entryY=1;entryDx=0;entryDy=0;strokeColor=default;align=center;verticalAlign=middle;fontFamily=Helvetica;fontSize=11;fontColor=default;labelBackgroundColor=default;endArrow=classic;exitX=0.5;exitY=0;exitDx=0;exitDy=0;exitPerimeter=0;" edge="1" parent="1" source="38NqQ832aSYF8gRKxVFK-84" target="5">
          <mxGeometry relative="1" as="geometry" />
        </mxCell>
        <mxCell id="38NqQ832aSYF8gRKxVFK-111" value="consumes" style="edgeLabel;html=1;align=center;verticalAlign=middle;resizable=0;points=[];fontFamily=Helvetica;fontSize=11;fontColor=default;labelBackgroundColor=default;" vertex="1" connectable="0" parent="38NqQ832aSYF8gRKxVFK-110">
          <mxGeometry x="-0.049" y="-3" relative="1" as="geometry">
            <mxPoint as="offset" />
          </mxGeometry>
        </mxCell>
        <mxCell id="38NqQ832aSYF8gRKxVFK-115" style="edgeStyle=orthogonalEdgeStyle;shape=connector;curved=0;rounded=1;orthogonalLoop=1;jettySize=auto;html=1;exitX=0.75;exitY=1;exitDx=0;exitDy=0;strokeColor=default;align=center;verticalAlign=middle;fontFamily=Helvetica;fontSize=11;fontColor=default;labelBackgroundColor=default;endArrow=classic;entryX=0.5;entryY=1;entryDx=0;entryDy=0;entryPerimeter=0;" edge="1" parent="1" source="11" target="38NqQ832aSYF8gRKxVFK-93">
          <mxGeometry relative="1" as="geometry" />
        </mxCell>
        <mxCell id="38NqQ832aSYF8gRKxVFK-116" value="produces" style="edgeLabel;html=1;align=center;verticalAlign=middle;resizable=0;points=[];fontFamily=Helvetica;fontSize=11;fontColor=default;labelBackgroundColor=default;" vertex="1" connectable="0" parent="38NqQ832aSYF8gRKxVFK-115">
          <mxGeometry x="-0.4018" y="-2" relative="1" as="geometry">
            <mxPoint as="offset" />
          </mxGeometry>
        </mxCell>
        <mxCell id="38NqQ832aSYF8gRKxVFK-117" style="edgeStyle=orthogonalEdgeStyle;shape=connector;curved=0;rounded=1;orthogonalLoop=1;jettySize=auto;html=1;exitX=0.5;exitY=0;exitDx=0;exitDy=0;exitPerimeter=0;entryX=0.75;entryY=1;entryDx=0;entryDy=0;strokeColor=default;align=center;verticalAlign=middle;fontFamily=Helvetica;fontSize=11;fontColor=default;labelBackgroundColor=default;endArrow=classic;" edge="1" parent="1" source="38NqQ832aSYF8gRKxVFK-99" target="38NqQ832aSYF8gRKxVFK-25">
          <mxGeometry relative="1" as="geometry" />
        </mxCell>
        <mxCell id="38NqQ832aSYF8gRKxVFK-120" value="consumes" style="edgeLabel;html=1;align=center;verticalAlign=middle;resizable=0;points=[];fontFamily=Helvetica;fontSize=11;fontColor=default;labelBackgroundColor=default;" vertex="1" connectable="0" parent="38NqQ832aSYF8gRKxVFK-117">
          <mxGeometry x="0.1691" y="3" relative="1" as="geometry">
            <mxPoint as="offset" />
          </mxGeometry>
        </mxCell>
        <mxCell id="38NqQ832aSYF8gRKxVFK-118" style="edgeStyle=orthogonalEdgeStyle;shape=connector;curved=0;rounded=1;orthogonalLoop=1;jettySize=auto;html=1;exitX=0.5;exitY=0;exitDx=0;exitDy=0;exitPerimeter=0;entryX=0.864;entryY=0.974;entryDx=0;entryDy=0;entryPerimeter=0;strokeColor=default;align=center;verticalAlign=middle;fontFamily=Helvetica;fontSize=11;fontColor=default;labelBackgroundColor=default;endArrow=classic;" edge="1" parent="1" source="38NqQ832aSYF8gRKxVFK-93" target="38NqQ832aSYF8gRKxVFK-25">
          <mxGeometry relative="1" as="geometry" />
        </mxCell>
        <mxCell id="38NqQ832aSYF8gRKxVFK-119" value="consumes" style="edgeLabel;html=1;align=center;verticalAlign=middle;resizable=0;points=[];fontFamily=Helvetica;fontSize=11;fontColor=default;labelBackgroundColor=default;" vertex="1" connectable="0" parent="38NqQ832aSYF8gRKxVFK-118">
          <mxGeometry x="0.1527" y="-1" relative="1" as="geometry">
            <mxPoint y="1" as="offset" />
          </mxGeometry>
        </mxCell>
        <mxCell id="38NqQ832aSYF8gRKxVFK-126" value="&lt;b&gt;WEATHER API&lt;/b&gt;" style="rounded=1;whiteSpace=wrap;html=1;fontFamily=Helvetica;fontSize=11;labelBackgroundColor=default;fillColor=#e1d5e7;strokeColor=#9673a6;" vertex="1" parent="1">
          <mxGeometry x="416" y="-120" width="120" height="60" as="geometry" />
        </mxCell>
        <mxCell id="38NqQ832aSYF8gRKxVFK-129" value="&lt;b&gt;OVERPASS API&lt;/b&gt;" style="rounded=1;whiteSpace=wrap;html=1;fontFamily=Helvetica;fontSize=11;labelBackgroundColor=default;fillColor=#d5e8d4;strokeColor=#82b366;" vertex="1" parent="1">
          <mxGeometry x="600" y="-120" width="120" height="60" as="geometry" />
        </mxCell>
        <mxCell id="38NqQ832aSYF8gRKxVFK-137" value="" style="endArrow=none;dashed=1;html=1;rounded=1;strokeColor=default;align=center;verticalAlign=middle;fontFamily=Helvetica;fontSize=11;fontColor=default;labelBackgroundColor=default;" edge="1" parent="1">
          <mxGeometry width="50" height="50" relative="1" as="geometry">
            <mxPoint x="-100" y="-20" as="sourcePoint" />
            <mxPoint x="1202" y="-20" as="targetPoint" />
          </mxGeometry>
        </mxCell>
        <mxCell id="38NqQ832aSYF8gRKxVFK-138" value="&lt;b&gt;External Services&lt;/b&gt;" style="text;html=1;align=center;verticalAlign=middle;resizable=0;points=[];autosize=1;strokeColor=none;fillColor=none;fontFamily=Helvetica;fontSize=11;fontColor=default;labelBackgroundColor=default;" vertex="1" parent="1">
          <mxGeometry x="480" y="-180" width="120" height="30" as="geometry" />
        </mxCell>
        <mxCell id="38NqQ832aSYF8gRKxVFK-142" style="edgeStyle=orthogonalEdgeStyle;shape=connector;curved=0;rounded=1;orthogonalLoop=1;jettySize=auto;html=1;entryX=0;entryY=0.5;entryDx=0;entryDy=0;entryPerimeter=0;strokeColor=default;align=center;verticalAlign=middle;fontFamily=Helvetica;fontSize=11;fontColor=default;labelBackgroundColor=default;endArrow=classic;exitX=1;exitY=0.5;exitDx=0;exitDy=0;" edge="1" parent="1" source="7" target="38NqQ832aSYF8gRKxVFK-19">
          <mxGeometry relative="1" as="geometry">
            <mxPoint x="947" y="175" as="sourcePoint" />
            <mxPoint x="1078" y="130" as="targetPoint" />
          </mxGeometry>
        </mxCell>
        <mxCell id="38NqQ832aSYF8gRKxVFK-143" value="query" style="edgeLabel;html=1;align=center;verticalAlign=middle;resizable=0;points=[];fontFamily=Helvetica;fontSize=11;fontColor=default;labelBackgroundColor=default;" vertex="1" connectable="0" parent="38NqQ832aSYF8gRKxVFK-142">
          <mxGeometry x="-0.3371" y="4" relative="1" as="geometry">
            <mxPoint x="-2" y="59" as="offset" />
          </mxGeometry>
        </mxCell>
        <mxCell id="38NqQ832aSYF8gRKxVFK-145" style="edgeStyle=orthogonalEdgeStyle;shape=connector;curved=0;rounded=1;orthogonalLoop=1;jettySize=auto;html=1;entryX=0;entryY=0;entryDx=0;entryDy=15;entryPerimeter=0;strokeColor=default;align=center;verticalAlign=middle;fontFamily=Helvetica;fontSize=11;fontColor=default;labelBackgroundColor=default;endArrow=classic;" edge="1" parent="1" source="38NqQ832aSYF8gRKxVFK-25" target="38NqQ832aSYF8gRKxVFK-20">
          <mxGeometry relative="1" as="geometry">
            <Array as="points">
              <mxPoint x="742" y="62" />
            </Array>
          </mxGeometry>
        </mxCell>
        <mxCell id="38NqQ832aSYF8gRKxVFK-146" value="data persistence" style="edgeLabel;html=1;align=center;verticalAlign=middle;resizable=0;points=[];fontFamily=Helvetica;fontSize=11;fontColor=default;labelBackgroundColor=default;" vertex="1" connectable="0" parent="38NqQ832aSYF8gRKxVFK-145">
          <mxGeometry x="0.2732" y="-1" relative="1" as="geometry">
            <mxPoint x="38" as="offset" />
          </mxGeometry>
        </mxCell>
      </root>
    </mxGraphModel>
  </diagram>
</mxfile>
